<svg width="429" height="416" version="1.1" xmlns="http://www.w3.org/2000/svg" desc="Created with imagetracer.js version 1.2.6" ><path fill="rgb(154,160,172)" stroke="rgb(154,160,172)" stroke-width="1" opacity="0.9725490196078431" d="M 197.5 0 L 246.5 0 L 247.5 1 L 259.5 2 L 290.5 10 L 325 25 Q 323.9 27.7 326.5 27 L 330 28 Q 328.9 30.7 331.5 30 L 338.5 35 L 341 35 L 342.5 38 L 349 41 L 350.5 44 Q 354 49 360 50 L 360 51.5 L 385 77.5 L 395 93 Q 398 91.8 397 95.5 L 400 99.5 L 398 98.5 Q 388.7 81.3 375.5 68 L 372.5 66 L 366.5 60 L 77.5 60 L 67 69.5 Q 40.9 98.4 26.5 139 L 26 136.5 L 31 126.5 L 31 123.5 L 41 105.5 L 41 103 Q 43.7 104.1 43 101.5 L 44 98 Q 46.7 99.1 46 96.5 Q 49.6 94.6 49 90 Q 51.7 91.1 51 88.5 L 52 86 L 54 86 L 54 83 Q 56.7 84.1 56 81.5 Q 60.4 79 61 74 L 65 71.5 L 66 68 L 67.5 68 L 81 54.5 L 81 53 L 83 53 Q 81.9 50.3 84.5 51 L 110.5 31 L 144.5 13 L 178.5 3 L 196.5 1 L 197.5 0 Z " /><path fill="rgb(154,160,172)" stroke="rgb(154,160,172)" stroke-width="1" opacity="0.9725490196078431" d="M 224.5 86 L 318 86.5 L 224.5 87 L 215.5 91 L 216.5 89 L 224.5 86 Z " /><path fill="rgb(154,160,172)" stroke="rgb(154,160,172)" stroke-width="1" opacity="0.9725490196078431" d="M 324.5 88 L 330 92.5 L 331 103.5 L 324.5 113 L 327 109.5 Q 331.2 105.7 330 96.5 L 326.5 90 L 324.5 88 Z " /><path fill="rgb(154,160,172)" stroke="rgb(154,160,172)" stroke-width="1" opacity="0.9725490196078431" d="M 210.5 95 L 209.5 97 L 210.5 95 Z " /><path fill="rgb(154,160,172)" stroke="rgb(154,160,172)" stroke-width="1" opacity="0.9725490196078431" d="M 207.5 101 Q 206.8 109.8 211 113.5 L 209 112.5 Q 205.5 108.6 207.5 101 Z " /><path fill="rgb(154,160,172)" stroke="rgb(154,160,172)" stroke-width="1" opacity="0.9725490196078431" d="M 400.5 101 L 404 106.5 L 402 105.5 L 400.5 101 Z " /><path fill="rgb(154,160,172)" stroke="rgb(154,160,172)" stroke-width="1" opacity="0.9725490196078431" d="M 406.5 112 L 410 118.5 L 409 118.5 L 406.5 112 Z " /><path fill="rgb(154,160,172)" stroke="rgb(154,160,172)" stroke-width="1" opacity="0.9725490196078431" d="M 322.5 113 L 321.5 115 L 322.5 113 Z " /><path fill="rgb(154,160,172)" stroke="rgb(154,160,172)" stroke-width="1" opacity="0.9725490196078431" d="M 212.5 114 L 215 115.5 L 213.5 116 L 212.5 114 Z " /><path fill="rgb(154,160,172)" stroke="rgb(154,160,172)" stroke-width="1" opacity="0.9725490196078431" d="M 284.5 117 L 285 118.5 L 282.5 123 L 283 121.5 L 284.5 117 Z " /><path fill="rgb(154,160,172)" stroke="rgb(154,160,172)" stroke-width="1" opacity="0.9725490196078431" d="M 410.5 120 L 414 127.5 L 413 127.5 L 410.5 120 Z " /><path fill="rgb(154,160,172)" stroke="rgb(154,160,172)" stroke-width="1" opacity="0.9725490196078431" d="M 414.5 129 L 417 134.5 L 415 133.5 L 414.5 129 Z " /><path fill="rgb(154,160,172)" stroke="rgb(154,160,172)" stroke-width="1" opacity="0.9725490196078431" d="M 241.5 135 L 242 136.5 L 240.5 139 L 240 137.5 L 241.5 135 Z " /><path fill="rgb(154,160,172)" stroke="rgb(154,160,172)" stroke-width="1" opacity="0.9725490196078431" d="M 25.5 140 L 26 141.5 L 24.5 145 L 24 142.5 L 25.5 140 Z " /><path fill="rgb(154,160,172)" stroke="rgb(154,160,172)" stroke-width="1" opacity="0.9725490196078431" d="M 239.5 140 L 240 141.5 L 238.5 144 L 238 142.5 L 239.5 140 Z " /><path fill="rgb(154,160,172)" stroke="rgb(154,160,172)" stroke-width="1" opacity="0.9725490196078431" d="M 22.5 148 L 23 150.5 L 22 150.5 L 22.5 148 Z " /><path fill="rgb(154,160,172)" stroke="rgb(154,160,172)" stroke-width="1" opacity="0.9725490196078431" d="M 20.5 156 L 21 158.5 L 20 158.5 L 20.5 156 Z " /><path fill="rgb(154,160,172)" stroke="rgb(154,160,172)" stroke-width="1" opacity="0.9725490196078431" d="M 19.5 160 L 20 162.5 L 19 162.5 L 19.5 160 Z " /><path fill="rgb(154,160,172)" stroke="rgb(154,160,172)" stroke-width="1" opacity="0.9725490196078431" d="M 179.5 163 L 183 163.5 L 179.5 164 L 179.5 163 Z " /><path fill="rgb(154,160,172)" stroke="rgb(154,160,172)" stroke-width="1" opacity="0.9725490196078431" d="M 18.5 164 L 19 167.5 L 18 167.5 L 18.5 164 Z " /><path fill="rgb(154,160,172)" stroke="rgb(154,160,172)" stroke-width="1" opacity="0.9725490196078431" d="M 173.5 164 L 176 164.5 L 173.5 165 L 173.5 164 Z " /><path fill="rgb(154,160,172)" stroke="rgb(154,160,172)" stroke-width="1" opacity="0.9725490196078431" d="M 210.5 166 L 214.5 171 L 210.5 166 Z " /><path fill="rgb(154,160,172)" stroke="rgb(154,160,172)" stroke-width="1" opacity="0.9725490196078431" d="M 17.5 169 L 18 173.5 L 17 173.5 L 17.5 169 Z " /><path fill="rgb(154,160,172)" stroke="rgb(154,160,172)" stroke-width="1" opacity="0.9725490196078431" d="M 426.5 170 L 427 172.5 L 426 172.5 L 426.5 170 Z " /><path fill="rgb(154,160,172)" stroke="rgb(154,160,172)" stroke-width="1" opacity="0.9725490196078431" d="M 215.5 172 Q 218.5 175 217 182.5 L 216 182.5 Q 216.5 175 215.5 172 Z " /><path fill="rgb(154,160,172)" stroke="rgb(154,160,172)" stroke-width="1" opacity="0.9725490196078431" d="M 16.5 176 L 17 180.5 L 16 180.5 L 16.5 176 Z " /><path fill="rgb(154,160,172)" stroke="rgb(154,160,172)" stroke-width="1" opacity="0.9725490196078431" d="M 427.5 176 L 428 179.5 L 427 179.5 L 427.5 176 Z " /><path fill="rgb(154,160,172)" stroke="rgb(154,160,172)" stroke-width="1" opacity="0.9725490196078431" d="M 139.5 177 L 138.5 179 L 139.5 177 Z " /><path fill="rgb(154,160,172)" stroke="rgb(154,160,172)" stroke-width="1" opacity="0.9725490196078431" d="M 136.5 179 L 135.5 181 L 136.5 179 Z " /><path fill="rgb(154,160,172)" stroke="rgb(154,160,172)" stroke-width="1" opacity="0.9725490196078431" d="M 133.5 181 L 132.5 183 L 133.5 181 Z " /><path fill="rgb(154,160,172)" stroke="rgb(154,160,172)" stroke-width="1" opacity="0.9725490196078431" d="M 130.5 183 L 126.5 188 L 130.5 183 Z " /><path fill="rgb(154,160,172)" stroke="rgb(154,160,172)" stroke-width="1" opacity="0.9725490196078431" d="M 257.5 183 L 258 184.5 L 256.5 187 L 256 185.5 L 257.5 183 Z " /><path fill="rgb(154,160,172)" stroke="rgb(154,160,172)" stroke-width="1" opacity="0.9725490196078431" d="M 15.5 184 L 16 189.5 L 15 189.5 L 15.5 184 Z " /><path fill="rgb(154,160,172)" stroke="rgb(154,160,172)" stroke-width="1" opacity="0.9725490196078431" d="M 215.5 184 L 216 185.5 L 213 187.5 L 215.5 184 Z " /><path fill="rgb(154,160,172)" stroke="rgb(154,160,172)" stroke-width="1" opacity="0.9725490196078431" d="M 428.5 184 L 429 188.5 L 428 188.5 L 428.5 184 Z " /><path fill="rgb(154,160,172)" stroke="rgb(154,160,172)" stroke-width="1" opacity="0.9725490196078431" d="M 255.5 188 L 256 189.5 L 254.5 192 L 254 190.5 L 255.5 188 Z " /><path fill="rgb(154,160,172)" stroke="rgb(154,160,172)" stroke-width="1" opacity="0.9725490196078431" d="M 123.5 189 L 115.5 198 L 123.5 189 Z " /><path fill="rgb(154,160,172)" stroke="rgb(154,160,172)" stroke-width="1" opacity="0.9725490196078431" d="M 210.5 190 L 209.5 192 L 210.5 190 Z " /><path fill="rgb(154,160,172)" stroke="rgb(154,160,172)" stroke-width="1" opacity="0.9725490196078431" d="M 14.5 194 L 15 221.5 L 14 221.5 L 14.5 194 Z " /><path fill="rgb(154,160,172)" stroke="rgb(154,160,172)" stroke-width="1" opacity="0.9725490196078431" d="M 188.5 195 L 191 195.5 L 188.5 196 L 188.5 195 Z " /><path fill="rgb(154,160,172)" stroke="rgb(154,160,172)" stroke-width="1" opacity="0.9725490196078431" d="M 252.5 195 L 253 196.5 L 251.5 199 L 251 197.5 L 252.5 195 Z " /><path fill="rgb(154,160,172)" stroke="rgb(154,160,172)" stroke-width="1" opacity="0.9725490196078431" d="M 114.5 199 L 111.5 203 L 114.5 199 Z " /><path fill="rgb(154,160,172)" stroke="rgb(154,160,172)" stroke-width="1" opacity="0.9725490196078431" d="M 250.5 200 L 251 201.5 L 249.5 204 L 249 202.5 L 250.5 200 Z " /><path fill="rgb(154,160,172)" stroke="rgb(154,160,172)" stroke-width="1" opacity="0.9725490196078431" d="M 109.5 205 L 108.5 207 L 109.5 205 Z " /><path fill="rgb(154,160,172)" stroke="rgb(154,160,172)" stroke-width="1" opacity="0.9725490196078431" d="M 248.5 205 L 249 206.5 L 247.5 209 L 247 207.5 L 248.5 205 Z " /><path fill="rgb(154,160,172)" stroke="rgb(154,160,172)" stroke-width="1" opacity="0.9725490196078431" d="M 153.5 207 L 152.5 209 L 153.5 207 Z " /><path fill="rgb(154,160,172)" stroke="rgb(154,160,172)" stroke-width="1" opacity="0.9725490196078431" d="M 107.5 208 L 106.5 210 L 107.5 208 Z " /><path fill="rgb(154,160,172)" stroke="rgb(154,160,172)" stroke-width="1" opacity="0.9725490196078431" d="M 150.5 209 L 148.5 212 L 150.5 209 Z " /><path fill="rgb(154,160,172)" stroke="rgb(154,160,172)" stroke-width="1" opacity="0.9725490196078431" d="M 246.5 210 L 247 211.5 L 245.5 214 L 245 212.5 L 246.5 210 Z " /><path fill="rgb(154,160,172)" stroke="rgb(154,160,172)" stroke-width="1" opacity="0.9725490196078431" d="M 105.5 211 L 105 212.5 L 102.5 217 L 103 215.5 L 105.5 211 Z " /><path fill="rgb(154,160,172)" stroke="rgb(154,160,172)" stroke-width="1" opacity="0.9725490196078431" d="M 244.5 215 L 245 216.5 L 243.5 219 L 243 217.5 L 244.5 215 Z " /><path fill="rgb(154,160,172)" stroke="rgb(154,160,172)" stroke-width="1" opacity="0.9725490196078431" d="M 141.5 218 L 139 221.5 L 135.5 227 L 136 225.5 L 141.5 218 Z " /><path fill="rgb(154,160,172)" stroke="rgb(154,160,172)" stroke-width="1" opacity="0.9725490196078431" d="M 242.5 220 L 243 221.5 L 241.5 224 L 241 222.5 L 242.5 220 Z " /><path fill="rgb(154,160,172)" stroke="rgb(154,160,172)" stroke-width="1" opacity="0.9725490196078431" d="M 428.5 226 L 429 230.5 L 428 230.5 L 428.5 226 Z " /><path fill="rgb(154,160,172)" stroke="rgb(154,160,172)" stroke-width="1" opacity="0.9725490196078431" d="M 15.5 227 L 16 232.5 L 15 232.5 L 15.5 227 Z " /><path fill="rgb(154,160,172)" stroke="rgb(154,160,172)" stroke-width="1" opacity="0.9725490196078431" d="M 239.5 227 L 240 228.5 L 230 252.5 L 216.5 277 L 217 275.5 L 229 252.5 L 239.5 227 Z " /><path fill="rgb(154,160,172)" stroke="rgb(154,160,172)" stroke-width="1" opacity="0.9725490196078431" d="M 134.5 228 L 134 229.5 L 131.5 236 L 131 234.5 L 134.5 228 Z " /><path fill="rgb(154,160,172)" stroke="rgb(154,160,172)" stroke-width="1" opacity="0.9725490196078431" d="M 427.5 235 L 428 238.5 L 427 238.5 L 427.5 235 Z " /><path fill="rgb(154,160,172)" stroke="rgb(154,160,172)" stroke-width="1" opacity="0.9725490196078431" d="M 16.5 237 L 17 240.5 L 16 240.5 L 16.5 237 Z " /><path fill="rgb(154,160,172)" stroke="rgb(154,160,172)" stroke-width="1" opacity="0.9725490196078431" d="M 130.5 237 L 131 239.5 L 129.5 244 L 129 240.5 L 130.5 237 Z " /><path fill="rgb(154,160,172)" stroke="rgb(154,160,172)" stroke-width="1" opacity="0.9725490196078431" d="M 94.5 238 L 95 240.5 L 94 240.5 L 94.5 238 Z " /><path fill="rgb(154,160,172)" stroke="rgb(154,160,172)" stroke-width="1" opacity="0.9725490196078431" d="M 426.5 242 L 427 244.5 L 426 244.5 L 426.5 242 Z " /><path fill="rgb(154,160,172)" stroke="rgb(154,160,172)" stroke-width="1" opacity="0.9725490196078431" d="M 17.5 243 L 18 245.5 L 17 245.5 L 17.5 243 Z " /><path fill="rgb(154,160,172)" stroke="rgb(154,160,172)" stroke-width="1" opacity="0.9725490196078431" d="M 93.5 244 L 94 246.5 L 93 246.5 L 93.5 244 Z " /><path fill="rgb(154,160,172)" stroke="rgb(154,160,172)" stroke-width="1" opacity="0.9725490196078431" d="M 128.5 245 L 129 259.5 L 128 259.5 L 128.5 245 Z " /><path fill="rgb(154,160,172)" stroke="rgb(154,160,172)" stroke-width="1" opacity="0.9725490196078431" d="M 18.5 249 L 19 251.5 L 18 251.5 L 18.5 249 Z " /><path fill="rgb(154,160,172)" stroke="rgb(154,160,172)" stroke-width="1" opacity="0.9725490196078431" d="M 424.5 252 L 425 254.5 L 424 254.5 L 424.5 252 Z " /><path fill="rgb(154,160,172)" stroke="rgb(154,160,172)" stroke-width="1" opacity="0.9725490196078431" d="M 190.5 256 L 189.5 258 L 190.5 256 Z " /><path fill="rgb(154,160,172)" stroke="rgb(154,160,172)" stroke-width="1" opacity="0.9725490196078431" d="M 187.5 261 L 186.5 263 L 187.5 261 Z " /><path fill="rgb(154,160,172)" stroke="rgb(154,160,172)" stroke-width="1" opacity="0.9725490196078431" d="M 185.5 264 L 183.5 267 L 185.5 264 Z " /><path fill="rgb(154,160,172)" stroke="rgb(154,160,172)" stroke-width="1" opacity="0.9725490196078431" d="M 181.5 269 L 178.5 273 L 181.5 269 Z " /><path fill="rgb(154,160,172)" stroke="rgb(154,160,172)" stroke-width="1" opacity="0.9725490196078431" d="M 419 271 L 421 271.5 L 419 272.5 L 419 271 Z " /><path fill="rgb(154,160,172)" stroke="rgb(154,160,172)" stroke-width="1" opacity="0.9725490196078431" d="M 171.5 277 L 170.5 279 L 171.5 277 Z " /><path fill="rgb(154,160,172)" stroke="rgb(154,160,172)" stroke-width="1" opacity="0.9725490196078431" d="M 215.5 278 L 215 279.5 L 208.5 288 L 211 284.5 L 215.5 278 Z " /><path fill="rgb(154,160,172)" stroke="rgb(154,160,172)" stroke-width="1" opacity="0.9725490196078431" d="M 153.5 282 L 156 282.5 L 153.5 283 L 153.5 282 Z " /><path fill="rgb(154,160,172)" stroke="rgb(154,160,172)" stroke-width="1" opacity="0.9725490196078431" d="M 207.5 289 L 197.5 300 L 207.5 289 Z " /><path fill="rgb(154,160,172)" stroke="rgb(154,160,172)" stroke-width="1" opacity="0.9725490196078431" d="M 411.5 293 L 412 294.5 L 410 295.5 L 411.5 293 Z " /><path fill="rgb(154,160,172)" stroke="rgb(154,160,172)" stroke-width="1" opacity="0.9725490196078431" d="M 194.5 301 L 193.5 303 L 194.5 301 Z " /><path fill="rgb(154,160,172)" stroke="rgb(154,160,172)" stroke-width="1" opacity="0.9725490196078431" d="M 39.5 307 L 41 309.5 L 39 308.5 L 39.5 307 Z " /><path fill="rgb(154,160,172)" stroke="rgb(154,160,172)" stroke-width="1" opacity="0.9725490196078431" d="M 404.5 307 L 405 308.5 L 402 310.5 L 404.5 307 Z " /><path fill="rgb(154,160,172)" stroke="rgb(154,160,172)" stroke-width="1" opacity="0.9725490196078431" d="M 42.5 313 L 43.5 315 L 42.5 313 Z " /><path fill="rgb(154,160,172)" stroke="rgb(154,160,172)" stroke-width="1" opacity="0.9725490196078431" d="M 140.5 314 L 143 314.5 L 140.5 315 L 140.5 314 Z " /><path fill="rgb(154,160,172)" stroke="rgb(154,160,172)" stroke-width="1" opacity="0.9725490196078431" d="M 163.5 314 L 166 314.5 L 163.5 315 L 163.5 314 Z " /><path fill="rgb(154,160,172)" stroke="rgb(154,160,172)" stroke-width="1" opacity="0.9725490196078431" d="M 149.5 315 L 157 315.5 L 149.5 316 L 149.5 315 Z " /><path fill="rgb(154,160,172)" stroke="rgb(154,160,172)" stroke-width="1" opacity="0.9725490196078431" d="M 399.5 316 L 398.5 318 L 399.5 316 Z " /><path fill="rgb(154,160,172)" stroke="rgb(154,160,172)" stroke-width="1" opacity="0.9725490196078431" d="M 45.5 318 L 46.5 320 L 45.5 318 Z " /><path fill="rgb(154,160,172)" stroke="rgb(154,160,172)" stroke-width="1" opacity="0.9725490196078431" d="M 397.5 319 L 396.5 321 L 397.5 319 Z " /><path fill="rgb(154,160,172)" stroke="rgb(154,160,172)" stroke-width="1" opacity="0.9725490196078431" d="M 394.5 324 L 392.5 327 L 394.5 324 Z " /><path fill="rgb(154,160,172)" stroke="rgb(154,160,172)" stroke-width="1" opacity="0.9725490196078431" d="M 51.5 327 L 52.5 329 L 51.5 327 Z " /><path fill="rgb(154,160,172)" stroke="rgb(154,160,172)" stroke-width="1" opacity="0.9725490196078431" d="M 391.5 328 L 390.5 330 L 391.5 328 Z " /><path fill="rgb(154,160,172)" stroke="rgb(154,160,172)" stroke-width="1" opacity="0.9725490196078431" d="M 53.5 330 L 54.5 332 L 53.5 330 Z " /><path fill="rgb(154,160,172)" stroke="rgb(154,160,172)" stroke-width="1" opacity="0.9725490196078431" d="M 389.5 331 L 387.5 334 L 389.5 331 Z " /><path fill="rgb(154,160,172)" stroke="rgb(154,160,172)" stroke-width="1" opacity="0.9725490196078431" d="M 56.5 334 L 57.5 336 L 56.5 334 Z " /><path fill="rgb(154,160,172)" stroke="rgb(154,160,172)" stroke-width="1" opacity="0.9725490196078431" d="M 386.5 335 L 384.5 338 L 386.5 335 Z " /><path fill="rgb(154,160,172)" stroke="rgb(154,160,172)" stroke-width="1" opacity="0.9725490196078431" d="M 59.5 338 L 61.5 341 L 59.5 338 Z " /><path fill="rgb(154,160,172)" stroke="rgb(154,160,172)" stroke-width="1" opacity="0.9725490196078431" d="M 382.5 340 L 381 342.5 Q 381.8 344.8 379.5 344 L 382.5 340 Z " /><path fill="rgb(154,160,172)" stroke="rgb(154,160,172)" stroke-width="1" opacity="0.9725490196078431" d="M 64.5 344 L 67.5 348 L 64.5 344 Z " /><path fill="rgb(154,160,172)" stroke="rgb(154,160,172)" stroke-width="1" opacity="0.9725490196078431" d="M 377.5 346 L 369.5 355 L 377.5 346 Z " /><path fill="rgb(154,160,172)" stroke="rgb(154,160,172)" stroke-width="1" opacity="0.9725490196078431" d="M 366.5 357 L 368 357.5 L 358.5 366 L 366.5 357 Z " /><path fill="rgb(154,160,172)" stroke="rgb(154,160,172)" stroke-width="1" opacity="0.9725490196078431" d="M 83.5 363 L 86.5 367 L 83.5 363 Z " /><path fill="rgb(154,160,172)" stroke="rgb(154,160,172)" stroke-width="1" opacity="0.9725490196078431" d="M 354.5 368 L 351.5 372 L 354.5 368 Z " /><path fill="rgb(154,160,172)" stroke="rgb(154,160,172)" stroke-width="1" opacity="0.9725490196078431" d="M 91.5 370 L 92.5 372 L 91.5 370 Z " /><path fill="rgb(154,160,172)" stroke="rgb(154,160,172)" stroke-width="1" opacity="0.9725490196078431" d="M 349.5 372 L 347.5 375 L 349.5 372 Z " /><path fill="rgb(154,160,172)" stroke="rgb(154,160,172)" stroke-width="1" opacity="0.9725490196078431" d="M 344.5 376 L 343.5 378 L 344.5 376 Z " /><path fill="rgb(154,160,172)" stroke="rgb(154,160,172)" stroke-width="1" opacity="0.9725490196078431" d="M 341.5 378 L 340.5 380 L 341.5 378 Z " /><path fill="rgb(154,160,172)" stroke="rgb(154,160,172)" stroke-width="1" opacity="0.9725490196078431" d="M 329.5 386 L 328.5 388 L 329.5 386 Z " /><path fill="rgb(154,160,172)" stroke="rgb(154,160,172)" stroke-width="1" opacity="0.9725490196078431" d="M 189.5 414 L 192 414.5 L 189.5 415 L 189.5 414 Z " /><path fill="rgb(137,144,157)" stroke="rgb(137,144,157)" stroke-width="1" opacity="0.996078431372549" d="M 52.5 89 L 53.5 91 L 51 90.5 L 52.5 89 Z " /><path fill="rgb(137,144,157)" stroke="rgb(137,144,157)" stroke-width="1" opacity="0.996078431372549" d="M 391.5 90 L 394 91.5 L 410 119.5 L 409.5 122 L 284.5 122 L 284 119.5 L 285 117 L 317.5 117 Q 324.3 114.8 328 109.5 Q 332.7 104.7 331 93.5 L 330.5 92 L 393 91.5 L 391.5 90 Z " /><path fill="rgb(137,144,157)" stroke="rgb(137,144,157)" stroke-width="1" opacity="0.996078431372549" d="M 50.5 92 L 212 92.5 L 208 97.5 L 207 108.5 L 210.5 114 L 216.5 117 L 249 117.5 L 246.5 123 L 245.5 122 L 34 121.5 L 36 120.5 L 35 118.5 Q 41.3 103.8 50.5 92 Z " /><path fill="rgb(137,144,157)" stroke="rgb(137,144,157)" stroke-width="1" opacity="0.996078431372549" d="M 183.5 162 L 190 162.5 L 183.5 163 L 183.5 162 Z " /><path fill="rgb(137,144,157)" stroke="rgb(137,144,157)" stroke-width="1" opacity="0.996078431372549" d="M 176.5 163 L 179 163.5 L 176.5 164 L 176.5 163 Z " /><path fill="rgb(137,144,157)" stroke="rgb(137,144,157)" stroke-width="1" opacity="0.996078431372549" d="M 16.5 181 L 17 183.5 L 16 183.5 L 16.5 181 Z " /><path fill="rgb(137,144,157)" stroke="rgb(137,144,157)" stroke-width="1" opacity="0.996078431372549" d="M 215.5 186 L 214.5 188 L 215.5 186 Z " /><path fill="rgb(137,144,157)" stroke="rgb(137,144,157)" stroke-width="1" opacity="0.996078431372549" d="M 428.5 189 L 429 192.5 L 428 192.5 L 428.5 189 Z " /><path fill="rgb(137,144,157)" stroke="rgb(137,144,157)" stroke-width="1" opacity="0.996078431372549" d="M 15.5 190 L 16 193.5 L 15 193.5 L 15.5 190 Z " /><path fill="rgb(137,144,157)" stroke="rgb(137,144,157)" stroke-width="1" opacity="0.996078431372549" d="M 177.5 272 L 174.5 276 L 177.5 272 Z " /><path fill="rgb(137,144,157)" stroke="rgb(137,144,157)" stroke-width="1" opacity="0.996078431372549" d="M 120.5 307 L 121.5 309 L 120.5 307 Z " /><path fill="rgb(137,144,157)" stroke="rgb(137,144,157)" stroke-width="1" opacity="0.996078431372549" d="M 58.5 336 L 59.5 338 L 58.5 336 Z " /><path fill="rgb(137,144,157)" stroke="rgb(137,144,157)" stroke-width="1" opacity="0.996078431372549" d="M 68.5 348 L 72.5 353 L 68.5 348 Z " /><path fill="rgb(137,144,157)" stroke="rgb(137,144,157)" stroke-width="1" opacity="0.996078431372549" d="M 80.5 360 L 82.5 363 L 80.5 360 Z " /><path fill="rgb(141,148,160)" stroke="rgb(141,148,160)" stroke-width="1" opacity="1" d="M 77.5 60 L 366.5 60 L 374 66 Q 372.9 68.7 375.5 68 L 392 89.5 L 391.5 91 L 393 91.5 L 329.5 92 L 326.5 89 L 317.5 86 L 224.5 86 Q 214.2 88.2 209.5 96 L 211.5 92 L 50 91.5 L 53 89.5 L 55 84.5 L 69.5 67 L 77.5 60 Z " /><path fill="rgb(141,148,160)" stroke="rgb(141,148,160)" stroke-width="1" opacity="1" d="M 190.5 162 L 197 162.5 L 190.5 163 L 190.5 162 Z " /><path fill="rgb(141,148,160)" stroke="rgb(141,148,160)" stroke-width="1" opacity="1" d="M 213.5 188 L 212.5 190 L 213.5 188 Z " /><path fill="rgb(141,148,160)" stroke="rgb(141,148,160)" stroke-width="1" opacity="1" d="M 147.5 212 L 142.5 218 L 147.5 212 Z " /><path fill="rgb(141,148,160)" stroke="rgb(141,148,160)" stroke-width="1" opacity="1" d="M 16.5 234 L 17 236.5 L 16 236.5 L 16.5 234 Z " /><path fill="rgb(141,148,160)" stroke="rgb(141,148,160)" stroke-width="1" opacity="1" d="M 106.5 296 L 112.5 303 L 106.5 296 Z " /><path fill="rgb(0,0,0)" stroke="rgb(0,0,0)" stroke-width="1" opacity="0" d="M 0 0 L 190 0.5 Q 149.4 7.4 119.5 25 Q 88.2 43.2 65 69.5 Q 39.4 98.4 25 138.5 L 19 159.5 L 15 182.5 L 15 191.5 L 14 192.5 L 14 223.5 L 15 224.5 L 15 233.5 L 16 234.5 L 17 246.5 L 22 267.5 Q 28.7 289.8 39 308.5 Q 57.9 342.6 86.5 367 Q 110.4 387.6 141.5 401 L 170.5 411 L 189.5 415 L 199 415.5 L 0 416 L 0 0 Z " /><path fill="rgb(0,0,0)" stroke="rgb(0,0,0)" stroke-width="1" opacity="0" d="M 256.5 0 L 429 0 L 429 180.5 L 428 180.5 L 427 167.5 L 422 147.5 Q 415.3 125.2 405 106.5 Q 386.2 72.3 357.5 48 Q 336.2 29.8 309.5 17 L 277.5 5 L 261.5 1 L 256.5 1 L 256.5 0 Z " /><path fill="rgb(0,0,0)" stroke="rgb(0,0,0)" stroke-width="1" opacity="0" d="M 428.5 237 L 429 416 L 247 415.5 L 277.5 410 L 305.5 400 Q 345.1 382.1 373 352.5 Q 397.4 326.9 413 292.5 L 424 261.5 L 428 244.5 L 428.5 237 Z " /><path fill="rgb(253,253,253)" stroke="rgb(253,253,253)" stroke-width="1" opacity="0.9725490196078431" d="M 190.5 0 L 197 0.5 L 190.5 1 L 190.5 0 Z " /><path fill="rgb(253,253,253)" stroke="rgb(253,253,253)" stroke-width="1" opacity="0.9725490196078431" d="M 247.5 0 L 261.5 1 L 290 9.5 L 287.5 10 Q 270.7 2.3 247.5 1 L 247.5 0 Z " /><path fill="rgb(253,253,253)" stroke="rgb(253,253,253)" stroke-width="1" opacity="0.9725490196078431" d="M 184.5 1 L 189 1.5 L 179.5 3 L 179.5 2 L 184.5 1 Z " /><path fill="rgb(253,253,253)" stroke="rgb(253,253,253)" stroke-width="1" opacity="0.9725490196078431" d="M 175.5 3 L 178 3.5 L 175.5 4 L 175.5 3 Z " /><path fill="rgb(253,253,253)" stroke="rgb(253,253,253)" stroke-width="1" opacity="0.9725490196078431" d="M 171.5 4 L 174 4.5 L 171.5 5 L 171.5 4 Z " /><path fill="rgb(253,253,253)" stroke="rgb(253,253,253)" stroke-width="1" opacity="0.9725490196078431" d="M 167.5 5 L 170 5.5 L 167.5 6 L 167.5 5 Z " /><path fill="rgb(253,253,253)" stroke="rgb(253,253,253)" stroke-width="1" opacity="0.9725490196078431" d="M 291.5 10 L 295 11.5 L 293.5 12 L 291.5 10 Z " /><path fill="rgb(253,253,253)" stroke="rgb(253,253,253)" stroke-width="1" opacity="0.9725490196078431" d="M 296.5 12 L 305 15.5 L 303.5 16 L 296.5 13 L 296.5 12 Z " /><path fill="rgb(253,253,253)" stroke="rgb(253,253,253)" stroke-width="1" opacity="0.9725490196078431" d="M 308.5 17 L 321 23.5 L 319.5 23 L 308.5 18 L 308.5 17 Z " /><path fill="rgb(253,253,253)" stroke="rgb(253,253,253)" stroke-width="1" opacity="0.9725490196078431" d="M 119.5 25 L 118.5 27 L 119.5 25 Z " /><path fill="rgb(253,253,253)" stroke="rgb(253,253,253)" stroke-width="1" opacity="0.9725490196078431" d="M 325.5 26 L 328 27.5 L 326.5 27 L 325.5 26 Z " /><path fill="rgb(253,253,253)" stroke="rgb(253,253,253)" stroke-width="1" opacity="0.9725490196078431" d="M 114.5 28 L 113.5 30 L 114.5 28 Z " /><path fill="rgb(253,253,253)" stroke="rgb(253,253,253)" stroke-width="1" opacity="0.9725490196078431" d="M 330.5 29 L 333 30.5 L 331.5 30 L 330.5 29 Z " /><path fill="rgb(253,253,253)" stroke="rgb(253,253,253)" stroke-width="1" opacity="0.9725490196078431" d="M 109.5 31 L 108.5 33 L 109.5 31 Z " /><path fill="rgb(253,253,253)" stroke="rgb(253,253,253)" stroke-width="1" opacity="0.9725490196078431" d="M 334.5 31 L 335.5 33 L 334.5 31 Z " /><path fill="rgb(253,253,253)" stroke="rgb(253,253,253)" stroke-width="1" opacity="0.9725490196078431" d="M 106.5 33 L 105.5 35 L 106.5 33 Z " /><path fill="rgb(253,253,253)" stroke="rgb(253,253,253)" stroke-width="1" opacity="0.9725490196078431" d="M 337.5 33 L 338.5 35 L 337.5 33 Z " /><path fill="rgb(253,253,253)" stroke="rgb(253,253,253)" stroke-width="1" opacity="0.9725490196078431" d="M 102.5 36 L 101.5 38 L 102.5 36 Z " /><path fill="rgb(253,253,253)" stroke="rgb(253,253,253)" stroke-width="1" opacity="0.9725490196078431" d="M 341.5 36 L 346 39.5 L 343.5 38 L 341.5 36 Z " /><path fill="rgb(253,253,253)" stroke="rgb(253,253,253)" stroke-width="1" opacity="0.9725490196078431" d="M 99.5 38 L 98.5 40 L 99.5 38 Z " /><path fill="rgb(253,253,253)" stroke="rgb(253,253,253)" stroke-width="1" opacity="0.9725490196078431" d="M 95.5 41 L 93.5 44 L 95.5 41 Z " /><path fill="rgb(253,253,253)" stroke="rgb(253,253,253)" stroke-width="1" opacity="0.9725490196078431" d="M 349.5 42 L 359 49.5 L 357.5 49 Q 350.8 46.2 349.5 42 Z " /><path fill="rgb(253,253,253)" stroke="rgb(253,253,253)" stroke-width="1" opacity="0.9725490196078431" d="M 90.5 45 L 87.5 49 L 90.5 45 Z " /><path fill="rgb(253,253,253)" stroke="rgb(253,253,253)" stroke-width="1" opacity="0.9725490196078431" d="M 360.5 51 L 385 76.5 L 380 72.5 L 360.5 51 Z " /><path fill="rgb(253,253,253)" stroke="rgb(253,253,253)" stroke-width="1" opacity="0.9725490196078431" d="M 80.5 54 L 67.5 68 L 80.5 54 Z " /><path fill="rgb(253,253,253)" stroke="rgb(253,253,253)" stroke-width="1" opacity="0.9725490196078431" d="M 64.5 71 L 62.5 74 L 64.5 71 Z " /><path fill="rgb(253,253,253)" stroke="rgb(253,253,253)" stroke-width="1" opacity="0.9725490196078431" d="M 59.5 77 L 56.5 81 L 59.5 77 Z " /><path fill="rgb(253,253,253)" stroke="rgb(253,253,253)" stroke-width="1" opacity="0.9725490196078431" d="M 385.5 78 L 387.5 81 L 385.5 78 Z " /><path fill="rgb(253,253,253)" stroke="rgb(253,253,253)" stroke-width="1" opacity="0.9725490196078431" d="M 388.5 82 L 390.5 85 L 388.5 82 Z " /><path fill="rgb(253,253,253)" stroke="rgb(253,253,253)" stroke-width="1" opacity="0.9725490196078431" d="M 391.5 86 L 396 92.5 L 395 92.5 L 391.5 86 Z " /><path fill="rgb(253,253,253)" stroke="rgb(253,253,253)" stroke-width="1" opacity="0.9725490196078431" d="M 224.5 87 L 320.5 87 L 328 91.5 Q 331 95.5 330 103.5 L 323.5 113 L 314.5 117 L 284 117 L 229 252.5 L 214 280.5 L 195.5 301 L 176.5 312 L 162.5 315 L 143.5 315 L 127.5 311 L 117.5 306 L 105 294.5 Q 91.2 278.8 93 247.5 L 97 229.5 L 102 217.5 Q 111 200 125.5 188 Q 137.9 176.9 154.5 170 L 176.5 164 L 199.5 163 L 209.5 166 L 215 171.5 L 216 183.5 L 211.5 190 L 202.5 194 L 180.5 196 L 166.5 200 Q 148.8 207.3 138 221.5 Q 131.8 229.3 129 240.5 L 128 259.5 Q 129.9 269.2 135 275 L 144.5 281 L 155.5 283 Q 157.3 280.3 163.5 282 L 170.5 279 L 182 269.5 L 191 256.5 L 202 234.5 L 249 117 L 218.5 117 L 210 112.5 Q 206.7 108.8 208 100.5 L 214.5 91 L 224.5 87 Z " /><path fill="rgb(253,253,253)" stroke="rgb(253,253,253)" stroke-width="1" opacity="0.9725490196078431" d="M 48.5 92 L 47.5 94 L 48.5 92 Z " /><path fill="rgb(253,253,253)" stroke="rgb(253,253,253)" stroke-width="1" opacity="0.9725490196078431" d="M 46.5 95 L 46 96.5 L 45.5 98 L 45 96.5 L 46.5 95 Z " /><path fill="rgb(253,253,253)" stroke="rgb(253,253,253)" stroke-width="1" opacity="0.9725490196078431" d="M 397.5 95 L 398.5 97 L 397.5 95 Z " /><path fill="rgb(253,253,253)" stroke="rgb(253,253,253)" stroke-width="1" opacity="0.9725490196078431" d="M 399.5 98 L 402 101.5 L 400 100.5 L 399.5 98 Z " /><path fill="rgb(253,253,253)" stroke="rgb(253,253,253)" stroke-width="1" opacity="0.9725490196078431" d="M 43.5 100 L 43 101.5 L 42.5 103 L 42 101.5 L 43.5 100 Z " /><path fill="rgb(253,253,253)" stroke="rgb(253,253,253)" stroke-width="1" opacity="0.9725490196078431" d="M 403.5 105 L 405 107.5 L 404 107.5 L 403.5 105 Z " /><path fill="rgb(253,253,253)" stroke="rgb(253,253,253)" stroke-width="1" opacity="0.9725490196078431" d="M 405.5 109 L 408 112.5 L 406 111.5 L 405.5 109 Z " /><path fill="rgb(253,253,253)" stroke="rgb(253,253,253)" stroke-width="1" opacity="0.9725490196078431" d="M 37.5 111 L 37 112.5 L 34.5 118 L 34 116.5 L 37.5 111 Z " /><path fill="rgb(253,253,253)" stroke="rgb(253,253,253)" stroke-width="1" opacity="0.9725490196078431" d="M 410.5 118 L 412 121.5 L 411 121.5 L 410.5 118 Z " /><path fill="rgb(253,253,253)" stroke="rgb(253,253,253)" stroke-width="1" opacity="0.9725490196078431" d="M 424.5 158 L 425 160.5 L 424 160.5 L 424.5 158 Z " /><path fill="rgb(253,253,253)" stroke="rgb(253,253,253)" stroke-width="1" opacity="0.9725490196078431" d="M 425.5 162 L 426 164.5 L 425 164.5 L 425.5 162 Z " /><path fill="rgb(253,253,253)" stroke="rgb(253,253,253)" stroke-width="1" opacity="0.9725490196078431" d="M 426.5 167 L 427 169.5 L 426 169.5 L 426.5 167 Z " /><path fill="rgb(253,253,253)" stroke="rgb(253,253,253)" stroke-width="1" opacity="0.9725490196078431" d="M 428.5 181 L 429 183.5 L 428 183.5 L 428.5 181 Z " /><path fill="rgb(253,253,253)" stroke="rgb(253,253,253)" stroke-width="1" opacity="0.9725490196078431" d="M 428.5 231 L 429 236.5 L 428 236.5 L 428.5 231 Z " /><path fill="rgb(253,253,253)" stroke="rgb(253,253,253)" stroke-width="1" opacity="0.9725490196078431" d="M 427.5 239 L 428 244.5 L 425.5 254 L 425 250.5 L 427.5 239 Z " /><path fill="rgb(253,253,253)" stroke="rgb(253,253,253)" stroke-width="1" opacity="0.9725490196078431" d="M 424.5 255 L 425 257.5 L 424 257.5 L 424.5 255 Z " /><path fill="rgb(253,253,253)" stroke="rgb(253,253,253)" stroke-width="1" opacity="0.9725490196078431" d="M 423.5 259 L 424 261.5 L 423 261.5 L 423.5 259 Z " /><path fill="rgb(253,253,253)" stroke="rgb(253,253,253)" stroke-width="1" opacity="0.9725490196078431" d="M 421.5 266 L 422 268.5 L 421 268.5 L 421.5 266 Z " /><path fill="rgb(253,253,253)" stroke="rgb(253,253,253)" stroke-width="1" opacity="0.9725490196078431" d="M 393.5 326 L 392.5 328 L 393.5 326 Z " /><path fill="rgb(253,253,253)" stroke="rgb(253,253,253)" stroke-width="1" opacity="0.9725490196078431" d="M 388.5 333 L 387.5 335 L 388.5 333 Z " /><path fill="rgb(253,253,253)" stroke="rgb(253,253,253)" stroke-width="1" opacity="0.9725490196078431" d="M 384.5 338 L 383.5 340 L 384.5 338 Z " /><path fill="rgb(253,253,253)" stroke="rgb(253,253,253)" stroke-width="1" opacity="0.9725490196078431" d="M 379.5 344 L 378.5 346 L 379.5 344 Z " /><path fill="rgb(253,253,253)" stroke="rgb(253,253,253)" stroke-width="1" opacity="0.9725490196078431" d="M 372.5 352 L 368.5 357 L 372.5 352 Z " /><path fill="rgb(253,253,253)" stroke="rgb(253,253,253)" stroke-width="1" opacity="0.9725490196078431" d="M 366.5 358 L 365.5 360 L 366.5 358 Z " /><path fill="rgb(109,115,128)" stroke="rgb(109,115,128)" stroke-width="1" opacity="0.996078431372549" d="M 19 170 L 151 170.5 Q 131.3 178.8 118 193.5 L 116 196.5 L 104 212.5 L 101 220 L 16 220.5 L 16.5 222 L 15 220.5 L 15 198.5 L 16 197.5 L 17 177.5 L 19 170 Z " /><path fill="rgb(109,115,128)" stroke="rgb(109,115,128)" stroke-width="1" opacity="0.996078431372549" d="M 216.5 170 L 227 170.5 L 206.5 221 L 205.5 220 L 142 220 L 148.5 212 Q 158 203.5 171.5 199 L 184.5 196 L 193.5 196 L 194.5 195 L 205.5 194 Q 212.7 192.2 216 186.5 L 218 177.5 L 216.5 170 Z " /><path fill="rgb(109,115,128)" stroke="rgb(109,115,128)" stroke-width="1" opacity="0.996078431372549" d="M 264.5 170 L 425.5 170 Q 426.5 170 426 174.5 L 427 175.5 L 428 192.5 L 429 193.5 L 429 218.5 L 427.5 220 L 244 220 L 264.5 170 Z " /><path fill="rgb(109,115,128)" stroke="rgb(109,115,128)" stroke-width="1" opacity="0.996078431372549" d="M 426.5 221 Q 429.8 219.9 429 222.5 L 427.5 222 L 426.5 221 Z " /><path fill="rgb(109,115,128)" stroke="rgb(109,115,128)" stroke-width="1" opacity="0.996078431372549" d="M 17.5 238 L 18 240.5 L 17 240.5 L 17.5 238 Z " /><path fill="rgb(109,115,128)" stroke="rgb(109,115,128)" stroke-width="1" opacity="0.996078431372549" d="M 129.5 247 L 130 249.5 L 129 249.5 L 129.5 247 Z " /><path fill="rgb(109,115,128)" stroke="rgb(109,115,128)" stroke-width="1" opacity="0.996078431372549" d="M 129.5 256 L 130 259.5 L 129 259.5 L 129.5 256 Z " /><path fill="rgb(109,115,128)" stroke="rgb(109,115,128)" stroke-width="1" opacity="0.996078431372549" d="M 181.5 268 L 178.5 272 L 181.5 268 Z " /><path fill="rgb(109,115,128)" stroke="rgb(109,115,128)" stroke-width="1" opacity="0.996078431372549" d="M 219.5 273 L 218.5 275 L 219.5 273 Z " /><path fill="rgb(109,115,128)" stroke="rgb(109,115,128)" stroke-width="1" opacity="0.996078431372549" d="M 216.5 278 L 215.5 280 L 216.5 278 Z " /><path fill="rgb(109,115,128)" stroke="rgb(109,115,128)" stroke-width="1" opacity="0.996078431372549" d="M 150.5 281 L 153 281.5 L 150.5 282 L 150.5 281 Z " /><path fill="rgb(109,115,128)" stroke="rgb(109,115,128)" stroke-width="1" opacity="0.996078431372549" d="M 156.5 281 L 161 281.5 L 156.5 282 L 156.5 281 Z " /><path fill="rgb(109,115,128)" stroke="rgb(109,115,128)" stroke-width="1" opacity="0.996078431372549" d="M 213.5 282 L 212.5 284 L 213.5 282 Z " /><path fill="rgb(109,115,128)" stroke="rgb(109,115,128)" stroke-width="1" opacity="0.996078431372549" d="M 211.5 285 L 209.5 288 L 211.5 285 Z " /><path fill="rgb(109,115,128)" stroke="rgb(109,115,128)" stroke-width="1" opacity="0.996078431372549" d="M 207.5 290 L 199.5 299 L 207.5 290 Z " /><path fill="rgb(109,115,128)" stroke="rgb(109,115,128)" stroke-width="1" opacity="0.996078431372549" d="M 104.5 294 L 105.5 296 L 104.5 294 Z " /><path fill="rgb(109,115,128)" stroke="rgb(109,115,128)" stroke-width="1" opacity="0.996078431372549" d="M 195.5 301 L 194.5 303 L 195.5 301 Z " /><path fill="rgb(109,115,128)" stroke="rgb(109,115,128)" stroke-width="1" opacity="0.996078431372549" d="M 145.5 315 L 148 315.5 L 145.5 316 L 145.5 315 Z " /><path fill="rgb(109,115,128)" stroke="rgb(109,115,128)" stroke-width="1" opacity="0.996078431372549" d="M 158.5 315 L 161 315.5 L 158.5 316 L 158.5 315 Z " /><path fill="rgb(109,115,128)" stroke="rgb(109,115,128)" stroke-width="1" opacity="0.996078431372549" d="M 65.5 344 L 66.5 346 L 65.5 344 Z " /><path fill="rgb(109,115,128)" stroke="rgb(109,115,128)" stroke-width="1" opacity="0.996078431372549" d="M 73.5 353 L 78.5 359 L 73.5 353 Z " /><path fill="rgb(109,115,128)" stroke="rgb(109,115,128)" stroke-width="1" opacity="0.996078431372549" d="M 86.5 365 L 88.5 368 L 86.5 365 Z " /><path fill="rgb(109,115,128)" stroke="rgb(109,115,128)" stroke-width="1" opacity="0.996078431372549" d="M 92.5 370 L 93.5 372 L 92.5 370 Z " /><path fill="rgb(109,115,128)" stroke="rgb(109,115,128)" stroke-width="1" opacity="0.996078431372549" d="M 104.5 379 L 105.5 381 L 104.5 379 Z " /><path fill="rgb(124,130,143)" stroke="rgb(124,130,143)" stroke-width="1" opacity="0.996078431372549" d="M 33 122 L 245.5 122 L 246 123.5 L 238 141.5 L 238 144.5 L 228 170 L 216 170.5 L 217 173.5 L 216 173.5 L 216 171.5 L 210.5 166 L 198.5 162 L 183.5 162 L 167.5 165 L 147.5 173 L 146.5 171 L 148.5 171 L 151 170.5 L 19 170 L 18.5 172 L 18 170.5 Q 23.2 143.6 33 122 Z " /><path fill="rgb(124,130,143)" stroke="rgb(124,130,143)" stroke-width="1" opacity="0.996078431372549" d="M 283 122 L 410.5 122 L 411 123.5 L 414 128.5 L 421 148.5 L 426 169.5 L 264.5 170 L 265 168.5 L 283 122 Z " /><path fill="rgb(124,130,143)" stroke="rgb(124,130,143)" stroke-width="1" opacity="0.996078431372549" d="M 143.5 174 L 142.5 176 L 138.5 178 L 139.5 176 L 143.5 174 Z " /><path fill="rgb(124,130,143)" stroke="rgb(124,130,143)" stroke-width="1" opacity="0.996078431372549" d="M 217.5 177 L 218 179.5 L 217 179.5 L 217.5 177 Z " /><path fill="rgb(124,130,143)" stroke="rgb(124,130,143)" stroke-width="1" opacity="0.996078431372549" d="M 136.5 178 L 134.5 181 L 136.5 178 Z " /><path fill="rgb(124,130,143)" stroke="rgb(124,130,143)" stroke-width="1" opacity="0.996078431372549" d="M 132.5 181 L 131.5 183 L 132.5 181 Z " /><path fill="rgb(124,130,143)" stroke="rgb(124,130,143)" stroke-width="1" opacity="0.996078431372549" d="M 129.5 183 L 125.5 188 L 129.5 183 Z " /><path fill="rgb(124,130,143)" stroke="rgb(124,130,143)" stroke-width="1" opacity="0.996078431372549" d="M 122.5 189 L 118.5 194 L 122.5 189 Z " /><path fill="rgb(124,130,143)" stroke="rgb(124,130,143)" stroke-width="1" opacity="0.996078431372549" d="M 15.5 194 L 16 197.5 L 15 197.5 L 15.5 194 Z " /><path fill="rgb(124,130,143)" stroke="rgb(124,130,143)" stroke-width="1" opacity="0.996078431372549" d="M 154.5 207 L 153.5 209 L 154.5 207 Z " /><path fill="rgb(124,130,143)" stroke="rgb(124,130,143)" stroke-width="1" opacity="0.996078431372549" d="M 151.5 209 L 149.5 212 L 151.5 209 Z " /><path fill="rgb(124,130,143)" stroke="rgb(124,130,143)" stroke-width="1" opacity="0.996078431372549" d="M 141.5 219 L 139.5 222 L 141.5 219 Z " /><path fill="rgb(124,130,143)" stroke="rgb(124,130,143)" stroke-width="1" opacity="0.996078431372549" d="M 15.5 221 L 16 224.5 L 15 224.5 L 15.5 221 Z " /><path fill="rgb(124,130,143)" stroke="rgb(124,130,143)" stroke-width="1" opacity="0.996078431372549" d="M 138.5 223 L 137.5 225 L 138.5 223 Z " /><path fill="rgb(124,130,143)" stroke="rgb(124,130,143)" stroke-width="1" opacity="0.996078431372549" d="M 136.5 226 L 136 227.5 L 133.5 233 L 133 231.5 L 136.5 226 Z " /><path fill="rgb(124,130,143)" stroke="rgb(124,130,143)" stroke-width="1" opacity="0.996078431372549" d="M 92.5 252 L 93 254.5 L 92 254.5 L 92.5 252 Z " /><path fill="rgb(124,130,143)" stroke="rgb(124,130,143)" stroke-width="1" opacity="0.996078431372549" d="M 92.5 257 L 93 262.5 L 92 262.5 L 92.5 257 Z " /><path fill="rgb(124,130,143)" stroke="rgb(124,130,143)" stroke-width="1" opacity="0.996078431372549" d="M 226.5 259 L 227 260.5 L 222.5 268 L 223 266.5 L 226.5 259 Z " /><path fill="rgb(124,130,143)" stroke="rgb(124,130,143)" stroke-width="1" opacity="0.996078431372549" d="M 134.5 272 L 135.5 274 L 134.5 272 Z " /><path fill="rgb(124,130,143)" stroke="rgb(124,130,143)" stroke-width="1" opacity="0.996078431372549" d="M 137.5 275 L 138.5 277 L 137.5 275 Z " /><path fill="rgb(124,130,143)" stroke="rgb(124,130,143)" stroke-width="1" opacity="0.996078431372549" d="M 368.5 355 L 367.5 357 L 368.5 355 Z " /><path fill="rgb(124,130,143)" stroke="rgb(124,130,143)" stroke-width="1" opacity="0.996078431372549" d="M 242.5 415 L 245 415.5 L 242.5 416 L 242.5 415 Z " /><path fill="rgb(89,94,108)" stroke="rgb(89,94,108)" stroke-width="1" opacity="0.996078431372549" d="M 421.5 261 L 422 263 L 420 263.5 L 421 266.5 L 411 294 L 205 293.5 Q 218 280 226.5 262 L 420.5 262 L 421.5 261 Z " /><path fill="rgb(89,94,108)" stroke="rgb(89,94,108)" stroke-width="1" opacity="0.996078431372549" d="M 23 262 L 91.5 262 L 92 263.5 L 96 280.5 L 104 293.5 L 34.5 294 Q 25.8 280.5 23 262 Z " /><path fill="rgb(89,94,108)" stroke="rgb(89,94,108)" stroke-width="1" opacity="0.996078431372549" d="M 131 262 L 185 262.5 L 178.5 271 L 175 273.5 Q 175.8 275.8 173.5 275 Q 166.8 283.3 149.5 281 L 139 277 L 137.5 274 Q 135.3 274.8 136 272.5 L 133 269.5 L 131 262 Z " /><path fill="rgb(89,94,108)" stroke="rgb(89,94,108)" stroke-width="1" opacity="0.996078431372549" d="M 408.5 295 L 409.5 297 L 408.5 295 Z " /><path fill="rgb(89,94,108)" stroke="rgb(89,94,108)" stroke-width="1" opacity="0.996078431372549" d="M 404.5 306 L 403.5 308 L 404.5 306 Z " /><path fill="rgb(89,94,108)" stroke="rgb(89,94,108)" stroke-width="1" opacity="0.996078431372549" d="M 397.5 318 L 396.5 320 L 397.5 318 Z " /><path fill="rgb(89,94,108)" stroke="rgb(89,94,108)" stroke-width="1" opacity="0.996078431372549" d="M 395.5 321 L 394.5 323 L 395.5 321 Z " /><path fill="rgb(89,94,108)" stroke="rgb(89,94,108)" stroke-width="1" opacity="0.996078431372549" d="M 393.5 324 L 392.5 326 L 393.5 324 Z " /><path fill="rgb(89,94,108)" stroke="rgb(89,94,108)" stroke-width="1" opacity="0.996078431372549" d="M 391.5 327 L 390.5 329 L 391.5 327 Z " /><path fill="rgb(89,94,108)" stroke="rgb(89,94,108)" stroke-width="1" opacity="0.996078431372549" d="M 389.5 330 L 388.5 332 L 389.5 330 Z " /><path fill="rgb(89,94,108)" stroke="rgb(89,94,108)" stroke-width="1" opacity="0.996078431372549" d="M 359.5 363 L 358.5 365 L 359.5 363 Z " /><path fill="rgb(89,94,108)" stroke="rgb(89,94,108)" stroke-width="1" opacity="0.996078431372549" d="M 236.5 415 L 239 415.5 L 236.5 416 L 236.5 415 Z " /><path fill="rgb(97,104,116)" stroke="rgb(97,104,116)" stroke-width="1" opacity="1" d="M 428.5 219 L 429 221 L 426 221.5 L 428 222 L 428 233.5 L 425 245.5 L 425.5 247 L 424.5 246 L 233 245.5 L 244.5 220 L 427.5 220 L 428.5 219 Z " /><path fill="rgb(97,104,116)" stroke="rgb(97,104,116)" stroke-width="1" opacity="1" d="M 16.5 220 L 100 220.5 L 98 221.5 L 99 223.5 L 96 229.5 L 93 246 L 19 245.5 L 19.5 244 Q 16.8 244.6 18 238.5 L 16 230.5 L 16 222.5 L 16.5 220 Z " /><path fill="rgb(97,104,116)" stroke="rgb(97,104,116)" stroke-width="1" opacity="1" d="M 141 220 L 205.5 220 L 206 222.5 L 195 246 L 130.5 246 L 130 242.5 L 132 235.5 L 139 222 Q 142 223 141 220 Z " /><path fill="rgb(97,104,116)" stroke="rgb(97,104,116)" stroke-width="1" opacity="1" d="M 191.5 253 L 190.5 255 L 191.5 253 Z " /><path fill="rgb(97,104,116)" stroke="rgb(97,104,116)" stroke-width="1" opacity="1" d="M 187.5 260 L 186.5 262 L 187.5 260 Z " /><path fill="rgb(97,104,116)" stroke="rgb(97,104,116)" stroke-width="1" opacity="1" d="M 184.5 264 L 183.5 266 L 184.5 264 Z " /><path fill="rgb(97,104,116)" stroke="rgb(97,104,116)" stroke-width="1" opacity="1" d="M 153.5 281 L 156 281.5 L 153.5 282 L 153.5 281 Z " /><path fill="rgb(95,100,113)" stroke="rgb(95,100,113)" stroke-width="1" opacity="1" d="M 425.5 244 L 426 245.5 L 423 259.5 L 420.5 262 L 226 261.5 L 233.5 246 L 424.5 246 L 425.5 244 Z " /><path fill="rgb(95,100,113)" stroke="rgb(95,100,113)" stroke-width="1" opacity="1" d="M 19 246 L 92.5 246 Q 93.5 246 93 250.5 L 92 251.5 L 92 262 L 22 261.5 Q 24.5 260 21 258.5 L 21 253.5 L 19 246 Z " /><path fill="rgb(95,100,113)" stroke="rgb(95,100,113)" stroke-width="1" opacity="1" d="M 130 246 L 195 246.5 L 184.5 264 L 184.5 262 L 131.5 262 L 130.5 263 L 129 250.5 L 130 246 Z " /><path fill="rgb(95,100,113)" stroke="rgb(95,100,113)" stroke-width="1" opacity="1" d="M 134.5 271 L 135.5 273 L 134.5 271 Z " /><path fill="rgb(95,100,113)" stroke="rgb(95,100,113)" stroke-width="1" opacity="1" d="M 177.5 271 L 175.5 274 L 177.5 271 Z " /><path fill="rgb(95,100,113)" stroke="rgb(95,100,113)" stroke-width="1" opacity="1" d="M 137.5 274 L 138.5 276 L 137.5 274 Z " /><path fill="rgb(95,100,113)" stroke="rgb(95,100,113)" stroke-width="1" opacity="1" d="M 198.5 299 L 197.5 301 L 198.5 299 Z " /><path fill="rgb(61,66,79)" stroke="rgb(61,66,79)" stroke-width="1" opacity="0.996078431372549" d="M 74.5 352 L 370 352.5 L 357.5 365 L 356 365 Q 357.1 367.7 354.5 367 Q 329.4 389.9 294.5 403 L 276.5 409 L 253.5 414 L 232.5 415 L 231.5 416 L 212.5 416 L 211.5 415 L 199.5 415 L 198.5 414 L 180.5 412 L 149.5 403 Q 117.1 390.9 93 370.5 Q 93.8 368.3 91.5 369 L 74.5 352 Z " /><path fill="rgb(76,81,94)" stroke="rgb(76,81,94)" stroke-width="1" opacity="0.996078431372549" d="M 34.5 294 L 103.5 294 L 104 296 L 105.5 296 Q 122 317.5 161.5 316 L 172.5 314 L 183.5 310 Q 196 304 204.5 294 L 410 294 Q 403.4 312.2 391.5 326 L 53.5 326 L 52.5 327 Q 40.9 312.2 34.5 294 Z " /><path fill="rgb(76,81,94)" stroke="rgb(76,81,94)" stroke-width="1" opacity="0.996078431372549" d="M 54.5 327 L 55.5 331 Q 51 329 54.5 327 Z " /><path fill="rgb(76,81,94)" stroke="rgb(76,81,94)" stroke-width="1" opacity="0.996078431372549" d="M 56.5 332 L 57.5 334 L 56.5 332 Z " /><path fill="rgb(76,81,94)" stroke="rgb(76,81,94)" stroke-width="1" opacity="0.996078431372549" d="M 385.5 335 L 383.5 338 L 385.5 335 Z " /><path fill="rgb(76,81,94)" stroke="rgb(76,81,94)" stroke-width="1" opacity="0.996078431372549" d="M 59.5 336 L 60.5 338 L 59.5 336 Z " /><path fill="rgb(76,81,94)" stroke="rgb(76,81,94)" stroke-width="1" opacity="0.996078431372549" d="M 382.5 339 L 379.5 343 L 382.5 339 Z " /><path fill="rgb(76,81,94)" stroke="rgb(76,81,94)" stroke-width="1" opacity="0.996078431372549" d="M 376.5 346 L 369.5 354 L 376.5 346 Z " /><path fill="rgb(76,81,94)" stroke="rgb(76,81,94)" stroke-width="1" opacity="0.996078431372549" d="M 69.5 348 L 72.5 352 L 69.5 348 Z " /><path fill="rgb(76,81,94)" stroke="rgb(76,81,94)" stroke-width="1" opacity="0.996078431372549" d="M 366.5 356 L 360.5 363 L 366.5 356 Z " /><path fill="rgb(72,78,91)" stroke="rgb(72,78,91)" stroke-width="1" opacity="1" d="M 53 326 L 392 326.5 L 390 327 L 390 329.5 L 387 333.5 L 372.5 350 L 371 350 L 370.5 352 L 74.5 352 L 79.5 359 Q 63.5 344.7 53 326 Z " /><path fill="rgb(72,78,91)" stroke="rgb(72,78,91)" stroke-width="1" opacity="1" d="M 368.5 354 L 367.5 356 L 368.5 354 Z " /><path fill="rgb(72,78,91)" stroke="rgb(72,78,91)" stroke-width="1" opacity="1" d="M 81.5 360 L 82.5 362 L 81.5 360 Z " /><path fill="rgb(72,78,91)" stroke="rgb(72,78,91)" stroke-width="1" opacity="1" d="M 86.5 364 L 90.5 369 L 86.5 364 Z " /><path fill="rgb(72,78,91)" stroke="rgb(72,78,91)" stroke-width="1" opacity="1" d="M 354.5 367 L 353.5 369 L 354.5 367 Z " /><path fill="rgb(72,78,91)" stroke="rgb(72,78,91)" stroke-width="1" opacity="1" d="M 349.5 371 L 348.5 373 L 349.5 371 Z " /><path fill="rgb(72,78,91)" stroke="rgb(72,78,91)" stroke-width="1" opacity="1" d="M 189.5 413 L 192 413.5 L 189.5 414 L 189.5 413 Z " /><path fill="rgb(72,78,91)" stroke="rgb(72,78,91)" stroke-width="1" opacity="1" d="M 208.5 415 L 212 415.5 L 208.5 416 L 208.5 415 Z " /><path fill="rgb(72,78,91)" stroke="rgb(72,78,91)" stroke-width="1" opacity="1" d="M 232.5 415 L 235 415.5 L 232.5 416 L 232.5 415 Z " /></svg>