<svg xmlns="http://www.w3.org/2000/svg" width="429" height="416" viewBox="0 0 429 416">
<g>
<path d="M 429.00 416.00 L 0.00 416.00 L 102.25 415.86 C158.49,415.79 201.28,415.39 197.35,414.98 C171.94,412.30 138.47,400.34 113.50,385.03 C76.29,362.21 45.90,325.78 30.03,285.00 C25.44,273.19 24.69,270.11 25.92,268.12 C27.01,266.37 29.00,267.55 29.00,269.94 C29.00,270.95 29.90,272.00 31.00,272.29 C32.48,272.68 33.00,272.32 33.00,270.91 C33.00,269.09 34.03,269.00 55.42,269.00 C70.36,269.00 77.95,269.35 78.19,270.06 C78.38,270.65 79.66,271.27 81.02,271.45 C82.38,271.62 84.29,272.09 85.25,272.49 C86.54,273.02 87.02,272.72 87.08,271.36 C87.13,270.08 87.33,269.93 87.71,270.89 C88.07,271.80 88.75,271.13 89.65,268.99 C90.41,267.18 91.31,265.98 91.66,266.32 C92.00,266.67 91.71,267.65 91.00,268.50 C89.92,269.80 89.98,269.95 91.37,269.41 C92.64,268.92 92.87,269.18 92.34,270.55 C91.94,271.59 92.06,272.08 92.62,271.73 C93.15,271.41 93.66,272.08 93.74,273.23 C93.83,274.38 94.28,275.59 94.75,275.91 C95.22,276.23 97.20,279.88 99.15,284.00 C105.62,297.68 116.28,306.90 131.96,312.35 C139.51,314.98 141.89,315.33 152.50,315.40 C173.75,315.54 187.10,310.15 201.56,295.61 C206.55,290.60 212.77,283.24 215.39,279.25 C220.21,271.91 221.52,270.99 223.95,273.25 C225.04,274.27 225.14,274.22 224.45,273.00 C223.78,271.79 223.90,271.73 225.06,272.65 C227.21,274.38 239.90,272.86 241.49,270.68 C242.63,269.13 249.28,269.00 329.33,269.00 C407.94,269.00 415.88,269.15 415.33,270.58 C414.91,271.67 414.50,271.81 414.02,271.03 C413.58,270.32 410.92,270.01 406.91,270.20 C401.13,270.47 400.47,270.72 400.18,272.75 C399.87,274.90 400.17,275.00 406.93,275.00 C411.49,275.00 414.00,274.60 414.00,273.88 C414.00,273.05 414.35,273.05 415.34,273.87 C416.08,274.48 416.96,274.71 417.30,274.37 C417.64,274.03 417.69,274.95 417.43,276.42 C416.59,281.03 411.07,294.11 405.47,304.73 C374.39,363.70 317.58,404.43 252.50,414.39 C244.47,415.62 253.50,415.79 336.25,415.89 L 429.00 416.00 ZM 163.28 279.58 C161.29,281.57 149.46,281.32 147.39,279.25 C146.59,278.44 145.08,278.01 144.04,278.28 C142.76,278.61 142.31,278.35 142.65,277.46 C143.00,276.56 142.54,276.31 141.19,276.66 C138.45,277.38 137.42,275.18 139.65,273.36 C140.67,272.53 140.82,272.20 140.00,272.62 C138.70,273.28 138.69,273.15 139.89,271.67 C140.70,270.67 142.03,270.19 143.06,270.52 C144.03,270.83 145.13,270.60 145.49,270.02 C145.91,269.33 150.91,269.02 159.40,269.14 C166.68,269.25 173.23,268.97 173.95,268.53 C174.84,267.98 175.10,268.17 174.78,269.11 C174.51,269.87 173.33,270.46 172.15,270.42 C170.97,270.38 170.23,270.56 170.50,270.83 C170.76,271.10 170.48,271.92 169.87,272.66 C169.05,273.65 169.05,274.00 169.88,274.00 C170.49,274.00 171.00,273.55 171.00,273.00 C171.00,272.45 171.54,272.00 172.20,272.00 C173.09,272.00 173.11,272.29 172.28,273.12 C171.66,273.74 171.39,274.86 171.69,275.62 C171.98,276.38 171.83,277.04 171.36,277.08 C167.32,277.47 164.52,278.33 163.28,279.58 Z" fill="rgb(71,76,89)"/>
<path d="M 209.61 286.75 C219.25,274.15 228.22,256.88 237.53,234.00 C240.10,227.68 245.12,215.30 248.68,206.50 C252.24,197.70 255.76,189.15 256.49,187.50 C257.23,185.85 261.06,176.68 265.00,167.11 C268.93,157.55 272.53,149.00 272.99,148.11 C273.44,147.23 274.42,145.15 275.16,143.50 C276.13,141.32 277.32,140.39 279.50,140.12 C285.33,139.38 396.30,138.90 397.89,139.61 C398.78,140.00 399.80,140.37 400.17,140.41 C400.53,140.46 401.17,140.84 401.58,141.25 C402.70,142.36 413.00,142.16 413.00,141.02 C413.00,140.41 413.88,140.45 415.35,141.12 C418.34,142.48 421.16,148.95 423.80,160.50 C427.79,177.94 428.20,183.41 427.74,213.00 C427.24,245.27 426.57,249.66 418.46,273.99 C417.98,275.41 417.49,276.82 416.99,278.23 C417.19,277.53 417.34,276.93 417.43,276.42 C417.69,274.95 417.64,274.03 417.30,274.37 C416.96,274.71 416.08,274.48 415.34,273.87 C414.35,273.05 414.00,273.05 414.00,273.88 C414.00,274.60 411.49,275.00 406.93,275.00 C400.17,275.00 399.87,274.90 400.18,272.75 C400.47,270.72 401.13,270.47 406.91,270.20 C410.92,270.01 413.58,270.32 414.02,271.03 C414.50,271.81 414.91,271.67 415.33,270.58 C415.88,269.15 407.94,269.00 329.33,269.00 C249.28,269.00 242.63,269.13 241.49,270.68 C239.90,272.86 227.21,274.38 225.06,272.65 C223.90,271.73 223.78,271.79 224.45,273.00 C225.14,274.22 225.04,274.27 223.95,273.25 C221.52,270.99 220.21,271.91 215.39,279.25 C214.12,281.18 212.01,283.90 209.61,286.75 ZM 30.87 287.12 C25.02,272.94 20.61,257.99 17.78,242.50 C15.98,232.61 15.59,226.71 15.58,209.00 C15.56,196.08 16.07,184.31 16.85,179.50 C18.56,168.91 22.72,151.13 24.22,148.00 C24.88,146.62 25.44,144.85 25.46,144.07 C25.49,143.18 26.85,142.48 29.00,142.24 C30.93,142.02 33.22,141.20 34.09,140.41 C35.46,139.18 50.21,138.98 135.78,139.01 C229.77,139.05 235.88,139.16 235.95,140.78 C236.30,148.59 235.05,152.42 219.89,189.89 C197.23,245.89 189.57,261.39 179.81,271.00 C173.16,277.54 167.47,280.74 160.57,281.82 C142.84,284.60 130.34,273.90 129.21,254.97 C128.32,239.89 133.43,227.46 145.44,215.45 C158.12,202.79 168.47,198.22 190.51,195.54 C205.40,193.74 209.26,192.64 213.30,189.02 C216.34,186.31 216.50,185.80 216.50,179.01 C216.50,172.06 216.39,171.75 212.89,168.54 C206.80,162.96 194.34,161.57 176.50,164.47 C154.12,168.12 136.12,177.60 119.50,194.50 C100.93,213.40 92.02,235.63 93.28,259.95 C93.68,267.51 95.08,274.39 97.47,280.56 C96.17,278.02 95.09,276.14 94.75,275.91 C94.28,275.59 93.83,274.38 93.74,273.23 C93.66,272.08 93.15,271.41 92.62,271.73 C92.06,272.08 91.94,271.59 92.34,270.55 C92.87,269.18 92.64,268.92 91.37,269.41 C89.98,269.95 89.92,269.80 91.00,268.50 C91.71,267.65 92.00,266.67 91.66,266.32 C91.31,265.98 90.41,267.18 89.65,268.99 C88.75,271.13 88.07,271.80 87.71,270.89 C87.33,269.93 87.13,270.08 87.08,271.36 C87.02,272.72 86.54,273.02 85.25,272.49 C84.29,272.09 82.38,271.62 81.02,271.45 C79.66,271.27 78.38,270.65 78.19,270.06 C77.95,269.35 70.36,269.00 55.42,269.00 C34.03,269.00 33.00,269.09 33.00,270.91 C33.00,272.32 32.48,272.68 31.00,272.29 C29.90,272.00 29.00,270.95 29.00,269.94 C29.00,267.55 27.01,266.37 25.92,268.12 C24.69,270.11 25.44,273.19 30.03,285.00 C30.31,285.71 30.59,286.42 30.87,287.12 ZM 163.28 279.58 C164.52,278.33 167.32,277.47 171.36,277.08 C171.83,277.04 171.98,276.38 171.69,275.62 C171.39,274.86 171.66,273.74 172.28,273.12 C173.11,272.29 173.09,272.00 172.20,272.00 C171.54,272.00 171.00,272.45 171.00,273.00 C171.00,273.55 170.49,274.00 169.88,274.00 C169.05,274.00 169.05,273.65 169.87,272.66 C170.48,271.92 170.76,271.10 170.50,270.83 C170.23,270.56 170.97,270.38 172.15,270.42 C173.33,270.46 174.51,269.87 174.78,269.11 C175.10,268.17 174.84,267.98 173.95,268.53 C173.23,268.97 166.68,269.25 159.40,269.14 C150.91,269.02 145.91,269.33 145.49,270.02 C145.13,270.60 144.03,270.83 143.06,270.52 C142.03,270.19 140.70,270.67 139.89,271.67 C138.69,273.15 138.70,273.28 140.00,272.62 C140.82,272.20 140.67,272.53 139.65,273.36 C137.42,275.18 138.45,277.38 141.19,276.66 C142.54,276.31 143.00,276.56 142.65,277.46 C142.31,278.35 142.76,278.61 144.04,278.28 C145.08,278.01 146.59,278.44 147.39,279.25 C149.46,281.32 161.29,281.57 163.28,279.58 ZM 52.88 327.52 C69.03,350.60 89.89,370.55 113.50,385.03 C89.46,370.29 68.93,350.64 52.88,327.52 ZM 187.11 307.25 C177.30,313.13 166.65,315.49 152.50,315.40 C165.69,315.48 176.97,313.01 187.11,307.25 ZM 114.73 303.38 C119.66,307.07 125.41,310.07 131.95,312.35 C125.33,310.05 119.61,307.08 114.73,303.38 Z" fill="rgb(107,113,126)"/>
<path d="M 0.00 0.00 L 429.00 0.00 L 335.25 0.13 C280.58,0.21 244.70,0.61 249.18,1.08 C279.84,4.33 318.95,20.52 346.50,41.36 C356.26,48.75 374.20,66.01 381.98,75.50 C400.19,97.73 415.06,126.94 422.43,155.00 L 422.45 155.09 C420.20,146.91 417.83,142.25 415.35,141.12 C413.88,140.45 413.00,140.41 413.00,141.02 C413.00,142.16 402.70,142.36 401.58,141.25 C401.17,140.84 400.53,140.46 400.17,140.41 C399.80,140.37 398.78,140.00 397.89,139.61 C396.30,138.90 285.33,139.38 279.50,140.12 C277.32,140.39 276.13,141.32 275.16,143.50 C274.42,145.15 273.44,147.23 272.99,148.11 C272.53,149.00 268.93,157.55 265.00,167.11 C263.61,170.47 262.24,173.78 261.02,176.74 C263.65,170.12 266.00,163.68 266.00,162.81 C266.00,161.95 267.50,157.93 269.32,153.87 C271.15,149.82 275.26,139.86 278.45,131.75 L 284.26 117.00 L 299.45 117.00 C314.04,117.00 314.86,116.89 320.07,114.25 C328.77,109.84 332.04,101.81 328.54,93.43 C328.07,92.32 327.68,91.39 327.09,90.62 C324.22,86.90 316.47,86.95 270.88,87.21 L 270.70 87.21 C221.84,87.50 221.47,87.52 217.28,89.75 C211.17,93.02 208.00,98.17 208.00,104.83 C208.00,109.49 208.39,110.56 210.96,112.97 C214.81,116.56 217.38,117.00 234.62,117.00 C242.53,117.00 249.00,117.19 249.00,117.42 C249.00,117.66 238.85,142.97 226.44,173.67 C225.62,175.70 224.82,177.68 224.04,179.61 C235.28,151.61 236.27,147.81 235.95,140.78 C235.88,139.16 229.77,139.05 135.78,139.01 C50.21,138.98 35.46,139.18 34.09,140.41 C33.22,141.20 30.93,142.02 29.00,142.24 C26.85,142.48 25.49,143.18 25.46,144.07 C25.44,144.85 24.88,146.62 24.22,148.00 C23.31,149.91 21.40,157.27 19.67,165.13 C24.17,142.93 26.85,135.40 35.44,117.50 C46.19,95.07 57.24,79.47 75.32,61.19 C98.21,38.03 125.76,20.85 157.31,10.07 C168.11,6.38 188.43,1.57 197.00,0.68 C197.04,0.68 197.06,0.68 197.06,0.67 C197.06,0.47 154.21,0.25 100.25,0.16 ZM 220.64 269.82 C226.20,259.60 232.53,246.29 237.53,234.00 C231.85,247.96 226.30,259.83 220.64,269.82 ZM 15.68 220.60 C15.31,211.33 15.37,201.29 15.87,192.37 C15.67,197.28 15.57,203.02 15.58,209.00 C15.58,213.56 15.61,217.34 15.68,220.60 ZM 187.11 307.25 C182.23,310.02 177.09,312.03 171.59,313.36 C178.91,311.51 185.60,308.45 191.90,304.06 C190.31,305.22 188.72,306.28 187.11,307.25 ZM 423.30 158.39 C425.17,165.75 426.33,171.38 427.01,177.75 C426.39,172.39 425.37,167.37 423.80,160.50 C423.63,159.78 423.47,159.07 423.30,158.39 ZM 193.04 251.73 C187.94,261.65 184.19,266.69 179.81,271.00 C184.13,266.74 188.05,261.32 193.04,251.73 ZM 97.70 281.02 C97.62,280.86 97.54,280.71 97.47,280.56 C95.08,274.39 93.68,267.51 93.28,259.95 C93.68,267.64 95.18,274.69 97.70,281.02 ZM 134.02 313.06 C136.36,313.76 138.79,314.39 140.68,314.77 C138.53,314.43 136.56,313.89 134.02,313.06 ZM 52.56 327.08 C52.67,327.23 52.77,327.38 52.88,327.52 C66.98,347.83 84.55,365.47 104.91,379.46 C84.39,365.37 66.72,347.58 52.56,327.08 ZM 21.33 258.56 C19.95,253.28 18.77,247.92 17.77,242.50 C17.66,241.90 17.56,241.29 17.46,240.65 C17.56,241.25 17.67,241.87 17.78,242.50 C18.77,247.92 19.95,253.28 21.33,258.56 Z" fill="rgb(143,149,162)"/>
<path d="M 0.00 208.00 L 0.00 0.00 L 100.25 0.16 C155.39,0.25 198.93,0.48 197.00,0.68 C188.43,1.57 168.11,6.38 157.31,10.07 C125.76,20.85 98.21,38.03 75.32,61.19 C57.24,79.47 46.19,95.07 35.44,117.50 C25.74,137.71 23.58,144.71 17.81,174.50 C14.67,190.76 14.65,225.43 17.77,242.50 C28.79,302.64 63.55,354.39 113.50,385.03 C138.47,400.34 171.94,412.30 197.35,414.98 C201.28,415.39 158.49,415.79 102.25,415.86 L 0.00 416.00 L 0.00 208.00 ZM 252.50 414.39 C329.32,402.63 393.71,348.16 418.46,273.99 C426.60,249.58 427.24,245.32 427.73,212.65 C428.20,181.42 427.57,174.58 422.43,155.00 C415.06,126.94 400.19,97.73 381.98,75.50 C374.20,66.01 356.26,48.75 346.50,41.36 C318.95,20.52 279.84,4.33 249.18,1.08 C244.70,0.61 280.58,0.21 335.25,0.13 L 429.00 0.00 L 429.00 208.00 L 429.00 416.00 L 336.25 415.89 C253.50,415.79 244.47,415.62 252.50,414.39 ZM 141.93 315.00 C138.86,314.51 133.34,312.98 129.65,311.59 C107.45,303.24 94.58,284.96 93.28,259.95 C92.02,235.63 100.93,213.40 119.50,194.50 C136.12,177.60 154.12,168.12 176.50,164.47 C194.34,161.57 206.80,162.96 212.89,168.54 C216.39,171.75 216.50,172.06 216.50,179.01 C216.50,185.80 216.34,186.31 213.30,189.02 C209.26,192.64 205.40,193.74 190.51,195.54 C168.47,198.22 158.12,202.79 145.44,215.45 C133.43,227.46 128.32,239.89 129.21,254.97 C130.34,273.90 142.84,284.60 160.57,281.82 C167.47,280.74 173.16,277.54 179.81,271.00 C190.14,260.83 196.98,246.56 226.44,173.67 C238.85,142.97 249.00,117.66 249.00,117.42 C249.00,117.19 242.53,117.00 234.62,117.00 C217.38,117.00 214.81,116.56 210.96,112.97 C208.39,110.56 208.00,109.49 208.00,104.83 C208.00,98.17 211.17,93.02 217.28,89.75 C221.47,87.52 221.84,87.50 270.70,87.21 C325.87,86.89 325.80,86.89 328.54,93.43 C332.04,101.81 328.77,109.84 320.07,114.25 C314.86,116.89 314.04,117.00 299.45,117.00 L 284.26 117.00 L 278.45 131.75 C275.26,139.86 271.15,149.82 269.32,153.87 C267.50,157.93 266.00,161.95 266.00,162.81 C266.00,164.20 260.07,179.63 256.51,187.50 C255.76,189.15 252.24,197.70 248.68,206.50 C245.12,215.30 240.10,227.68 237.53,234.00 C229.69,253.27 218.59,275.05 212.29,283.50 C196.42,304.80 179.52,314.50 156.50,315.50 C151.55,315.71 144.99,315.49 141.93,315.00 Z" fill="rgb(254,254,254)"/>
</g>
</svg>